<svg width="68" height="68" viewBox="0 0 68 68" fill="none" xmlns="http://www.w3.org/2000/svg">
<path d="M52.588 9.82427C47.2699 7.17927 40.7572 5.62207 33.7301 5.62207C26.703 5.62207 20.1931 7.17927 14.8722 9.82427C12.2638 11.1229 10.9596 11.7722 9.69749 13.8128C8.43543 15.8535 8.43262 17.8295 8.43262 21.7787V31.5885C8.43262 47.5625 21.1994 56.4447 28.5947 60.2478C30.6579 61.3075 31.6866 61.8387 33.7301 61.8387C35.7736 61.8387 36.8024 61.3075 38.8655 60.2478C46.258 56.4419 59.0276 47.5597 59.0276 31.5857V21.7787C59.0276 17.8295 59.0276 15.8535 57.7627 13.8128C56.4979 11.7722 55.1965 11.1229 52.588 9.82427Z" stroke="black" stroke-linecap="round" stroke-linejoin="round"/>
<path d="M33.7303 25.298V28.1088M30.9194 26.7034C30.9194 27.4489 31.2156 28.1638 31.7427 28.691C32.2698 29.2181 32.9848 29.5142 33.7303 29.5142C34.4757 29.5142 35.1907 29.2181 35.7178 28.691C36.245 28.1638 36.5411 27.4489 36.5411 26.7034C36.5411 25.9579 36.245 25.243 35.7178 24.7159C35.1907 24.1887 34.4757 23.8926 33.7303 23.8926C32.9848 23.8926 32.2698 24.1887 31.7427 24.7159C31.2156 25.243 30.9194 25.9579 30.9194 26.7034Z" stroke="black" stroke-linecap="round" stroke-linejoin="round"/>
<path d="M35.8383 39.3516H31.6221L33.7302 29.5137L35.8383 39.3516Z" stroke="black" stroke-linecap="round" stroke-linejoin="round"/>
</svg>
