<svg width="68" height="68" viewBox="0 0 68 68" fill="none" xmlns="http://www.w3.org/2000/svg">
<path d="M25.7276 15.2014C29.289 8.81518 31.0682 5.62207 33.7301 5.62207C36.3919 5.62207 38.1712 8.81518 41.7325 15.2014L42.6545 16.8542C43.6664 18.67 44.1723 19.5779 44.9594 20.1766C45.7464 20.7753 46.7302 20.9973 48.6978 21.4414L50.4855 21.8462C57.4001 23.4118 60.8546 24.1932 61.6782 26.8382C62.499 29.4804 60.1435 32.2379 55.4297 37.7499L54.2098 39.175C52.8719 40.7406 52.2001 41.5248 51.8993 42.4918C51.5986 43.4615 51.6997 44.5071 51.9021 46.5956L52.0876 48.4985C52.7988 55.8545 53.1558 59.531 51.0027 61.1641C48.8496 62.7972 45.6115 61.3075 39.1409 58.328L37.4629 57.5578C35.6246 56.709 34.7054 56.2873 33.7301 56.2873C32.7547 56.2873 31.8356 56.709 29.9973 57.5578L28.322 58.328C21.8487 61.3075 18.6106 62.7972 16.4603 61.1669C14.3044 59.531 14.6614 55.8545 15.3725 48.4985L15.558 46.5984C15.7604 44.5071 15.8616 43.4615 15.558 42.4946C15.2601 41.5248 14.5883 40.7406 13.2504 39.1778L12.0305 37.7499C7.31669 32.2407 4.96121 29.4832 5.78197 26.8382C6.60274 24.1932 10.0629 23.409 16.9775 21.8462L18.7652 21.4414C20.73 20.9973 21.711 20.7753 22.5008 20.1766C23.2907 19.5779 23.7938 18.67 24.8057 16.8542L25.7276 15.2014Z" stroke="black" stroke-width="1.5"/>
</svg>
